<!-- Generated by IcoMoon.io -->
<svg version="1.1" xmlns="http://www.w3.org/2000/svg" width="28" height="32" viewBox="0 0 28 32">
    <path
        d="M4 2c-2.206 0-4 1.794-4 4v20c0 2.206 1.794 4 4 4h20c2.206 0 4-1.794 4-4v-15.169c0-1.063-0.419-2.081-1.169-2.831l-4.831-4.831c-0.75-0.75-1.769-1.169-2.831-1.169h-15.169zM4 8c0-1.106 0.894-2 2-2h12c1.106 0 2 0.894 2 2v4c0 1.106-0.894 2-2 2h-12c-1.106 0-2-0.894-2-2v-4zM14 18c2.209 0 4 1.791 4 4s-1.791 4-4 4v0c-2.209 0-4-1.791-4-4s1.791-4 4-4v0z"></path>
</svg>