<!-- Generated by IcoMoon.io -->
<svg version="1.1" xmlns="http://www.w3.org/2000/svg" width="32" height="32" viewBox="0 0 32 32">
    <path
        d="M32 16c0 0.056 0 0.113 0 0.169-0.025 2.281-2.1 3.831-4.381 3.831h-6.119c-1.656 0-3 1.344-3 3 0 0.212 0.025 0.419 0.063 0.619 0.131 0.637 0.406 1.25 0.675 1.869 0.381 0.863 0.756 1.719 0.756 2.625 0 1.988-1.35 3.794-3.337 3.875-0.219 0.006-0.438 0.012-0.662 0.012-8.831 0-15.994-7.162-15.994-16s7.162-16 16-16 16 7.162 16 16zM8 18c0-1.105-0.895-2-2-2s-2 0.895-2 2v0c0 1.105 0.895 2 2 2s2-0.895 2-2v0zM8 12c1.105 0 2-0.895 2-2s-0.895-2-2-2v0c-1.105 0-2 0.895-2 2s0.895 2 2 2v0zM18 6c0-1.105-0.895-2-2-2s-2 0.895-2 2v0c0 1.105 0.895 2 2 2s2-0.895 2-2v0zM24 12c1.105 0 2-0.895 2-2s-0.895-2-2-2v0c-1.105 0-2 0.895-2 2s0.895 2 2 2v0z"></path>
</svg>