<!-- Generated by IcoMoon.io -->
<svg version="1.1" xmlns="http://www.w3.org/2000/svg" width="32" height="32" viewBox="0 0 32 32">
    <path
        d="M0.013 29.306c0.156 1.512 1.431 2.694 2.987 2.694h26c1.656 0 3-1.344 3-3v-6c0-1.656-1.344-3-3-3h-3v5c0 0.55-0.45 1-1 1s-1-0.45-1-1v-5h-4v5c0 0.55-0.45 1-1 1s-1-0.45-1-1v-5h-4v5c0 0.55-0.45 1-1 1s-1-0.45-1-1v-5h-5c-0.55 0-1-0.45-1-1s0.45-1 1-1h5v-4h-5c-0.55 0-1-0.45-1-1s0.45-1 1-1h5v-4h-5c-0.55 0-1-0.45-1-1s0.45-1 1-1h5v-3c0-1.656-1.344-3-3-3h-6c-1.656 0-3 1.344-3 3v26c0 0.106 0.006 0.206 0.013 0.306z"></path>
</svg>