<!-- Generated by IcoMoon.io -->
<svg version="1.1" xmlns="http://www.w3.org/2000/svg" width="32" height="32" viewBox="0 0 32 32">
    <path
        d="M21.5 0h9c0.831 0 1.5 0.669 1.5 1.5v9c0 0.606-0.363 1.156-0.925 1.387s-1.206 0.106-1.637-0.325l-2.438-2.438-5.438 5.438c-0.587 0.588-1.538 0.588-2.119 0l-2-2c-0.587-0.588-0.587-1.537 0-2.119l5.438-5.438-2.444-2.444c-0.431-0.431-0.556-1.075-0.325-1.637s0.781-0.925 1.387-0.925zM10.5 32h-9c-0.831 0-1.5-0.669-1.5-1.5v-9c0-0.606 0.362-1.156 0.925-1.387s1.206-0.106 1.637 0.325l2.438 2.438 5.438-5.438c0.588-0.587 1.537-0.587 2.119 0l2 2c0.588 0.587 0.588 1.538 0 2.119l-5.438 5.438 2.438 2.438c0.431 0.431 0.556 1.075 0.325 1.637s-0.781 0.925-1.387 0.925z"></path>
</svg>